<svg width="19" height="16" viewBox="0 0 19 16" fill="none" xmlns="http://www.w3.org/2000/svg">
<path d="M10.2928 7.29289C9.90227 7.68342 9.90227 8.31658 10.2928 8.70711L16.6568 15.0711C17.0473 15.4616 17.6804 15.4616 18.071 15.0711C18.4615 14.6805 18.4615 14.0474 18.071 13.6569L12.4141 8L18.071 2.34315C18.4615 1.95262 18.4615 1.31946 18.071 0.928932C17.6804 0.538408 17.0473 0.538408 16.6568 0.928932L10.2928 7.29289ZM11 7H10.9999V9H11V7Z" fill="white"/>
<path d="M0.292793 7.29289C-0.0977311 7.68342 -0.0977311 8.31658 0.292793 8.70711L6.65675 15.0711C7.04728 15.4616 7.68044 15.4616 8.07097 15.0711C8.46149 14.6805 8.46149 14.0474 8.07097 13.6569L2.41411 8L8.07097 2.34315C8.46149 1.95262 8.46149 1.31946 8.07097 0.928932C7.68044 0.538408 7.04728 0.538408 6.65675 0.928932L0.292793 7.29289ZM1 7H0.9999L0.9999 9H1L1 7Z" fill="white"/>
</svg>
